<svg version="1.1" id="Layer_1" xmlns="http://www.w3.org/2000/svg" xmlns:xlink="http://www.w3.org/1999/xlink" x="0px" y="0px"
	 width="100%" viewBox="0 0 100 100" enable-background="new 0 0 100 100" xml:space="preserve">
<path fill="#000000" opacity="1.000000" stroke="none" 
	d="
M60.000000,101.000000 
	C40.000004,101.000000 20.500008,101.000000 1.000008,101.000000 
	C1.000005,67.666679 1.000005,34.333351 1.000003,1.000021 
	C34.333317,1.000014 67.666634,1.000014 100.999969,1.000007 
	C100.999977,34.333313 100.999977,67.666626 100.999985,100.999969 
	C87.500000,101.000000 74.000000,101.000000 60.000000,101.000000 
M15.705773,65.709808 
	C15.269464,66.375931 14.931285,67.515137 14.380503,67.629387 
	C11.392375,68.249207 8.920156,69.950592 10.203629,72.860146 
	C10.944193,74.538963 14.148693,75.640266 16.410807,76.027046 
	C20.481026,76.722969 24.676561,76.685944 28.058914,76.868782 
	C26.814100,76.931923 25.569288,76.995056 24.108727,77.069138 
	C34.790440,89.973122 46.674847,91.010078 58.405674,80.325966 
	C64.582237,84.624092 71.021278,84.098976 76.488365,79.134430 
	C77.688660,78.044456 79.527550,77.165237 81.119949,77.080215 
	C90.779526,76.564461 95.647728,67.568108 90.677414,59.159416 
	C90.132164,58.236954 89.267761,57.255646 89.268715,56.302353 
	C89.272118,52.895554 89.584663,49.489067 90.400528,45.602875 
	C89.966805,43.423222 89.609543,41.224934 89.083733,39.067726 
	C87.926155,34.318680 82.601242,35.691185 80.009834,32.191010 
	C76.745155,16.795828 63.933506,12.204070 51.128902,16.015493 
	C44.666035,17.939232 40.936852,23.032707 38.007950,29.537582 
	C37.658195,30.029406 37.308441,30.521231 36.195587,30.725721 
	C28.161858,27.551670 21.271982,33.741318 18.950703,40.392235 
	C18.586073,41.436966 17.618469,42.480747 16.652067,43.068611 
	C13.037211,45.267536 10.099211,48.092861 9.779449,52.423958 
	C9.396185,57.615196 10.101787,62.627609 15.705773,65.709808 
z"/>
<path fill="#CEEDE5" opacity="1.000000" stroke="none" 
	d="
M89.780258,46.082462 
	C89.584663,49.489067 89.272118,52.895554 89.268715,56.302353 
	C89.267761,57.255646 90.132164,58.236954 90.677414,59.159416 
	C95.647728,67.568108 90.779526,76.564461 81.119949,77.080215 
	C79.527550,77.165237 77.688660,78.044456 76.488365,79.134430 
	C71.021278,84.098976 64.582237,84.624092 58.405674,80.325966 
	C46.674847,91.010078 34.790440,89.973122 24.108727,77.069138 
	C25.569288,76.995056 26.814100,76.931923 28.888288,76.904495 
	C33.942032,76.489693 38.751488,78.495476 42.357407,74.173660 
	C48.783459,77.587502 54.973850,77.261444 61.536133,74.917053 
	C62.576736,74.320396 63.306526,73.695961 64.023346,73.046875 
	C64.010384,73.022217 64.058388,73.050331 64.350006,73.052658 
	C64.777863,72.723152 64.914093,72.391319 65.033478,72.035637 
	C65.016624,72.011795 65.068863,72.037956 65.421906,71.976242 
	C66.805794,68.945686 67.836647,65.976860 68.920952,62.542713 
	C68.974411,57.140472 68.974411,52.203541 68.974411,47.183338 
	C71.779869,47.046970 74.021072,46.938030 76.262276,46.829090 
	C76.262405,46.554596 76.262527,46.280098 76.262657,46.005604 
	C73.471146,46.005604 70.679626,46.005604 67.671417,45.864952 
	C67.300476,45.800900 67.146225,45.877491 66.986206,45.985897 
	C66.980438,46.017708 67.043831,46.030407 67.014023,45.778702 
	C66.664780,45.171780 66.345360,44.816570 66.010315,44.085964 
	C66.956947,42.110901 67.919182,40.511230 69.172836,38.813644 
	C70.814339,38.337242 72.164406,37.958755 73.792000,37.502464 
	C74.103516,36.610935 74.587242,35.226578 75.454102,33.891434 
	C77.931793,34.845932 79.960884,36.283211 82.133942,36.550659 
	C87.372231,37.195358 90.508141,41.175644 89.054001,46.076546 
	C88.988518,46.039173 89.056282,46.027039 89.233078,46.095734 
	C89.409874,46.164425 89.780258,46.082462 89.780258,46.082462 
z"/>
<path fill="#C4E9E2" opacity="1.000000" stroke="none" 
	d="
M75.070961,33.842220 
	C74.587242,35.226578 74.103516,36.610935 73.792000,37.502464 
	C72.164406,37.958755 70.814339,38.337242 69.236359,38.376232 
	C69.745255,31.183125 69.858475,28.191536 59.505630,30.165636 
	C58.686707,31.999123 57.994617,33.814716 57.931660,35.651871 
	C57.596722,45.426231 57.419411,55.205994 56.990009,65.279739 
	C53.678112,68.126663 50.639389,69.176338 47.777946,64.702118 
	C47.500618,54.789043 47.348747,45.297916 47.061623,35.810883 
	C47.012039,34.172501 46.388645,32.551483 46.022335,30.956120 
	C46.014366,30.989794 46.079498,30.966402 46.039673,30.623980 
	C45.321037,30.209917 44.642223,30.138277 43.624084,29.929695 
	C41.638714,29.532824 39.992672,29.272896 38.346630,29.012968 
	C40.936852,23.032707 44.666035,17.939232 51.128902,16.015493 
	C63.933506,12.204070 76.745155,16.795828 79.645409,32.688244 
	C77.877640,33.404392 76.474304,33.623306 75.070961,33.842220 
z"/>
<path fill="#48B6CD" opacity="1.000000" stroke="none" 
	d="
M38.177292,29.275276 
	C39.992672,29.272896 41.638714,29.532824 43.760941,30.223902 
	C44.851254,30.758837 45.465374,30.862619 46.079498,30.966402 
	C46.079498,30.966402 46.014366,30.989794 45.943100,31.424042 
	C45.878986,41.294689 45.792027,50.732983 45.981491,60.165718 
	C46.014938,61.830849 47.202854,63.472790 47.857635,65.125443 
	C50.639389,69.176338 53.678112,68.126663 57.378506,65.182846 
	C58.345020,61.786579 58.931221,58.792305 59.066856,55.777760 
	C59.450912,47.242184 59.650524,38.698303 59.922783,30.157694 
	C69.858475,28.191536 69.745255,31.183125 68.944939,38.474144 
	C67.919182,40.511230 66.956947,42.110901 66.105934,44.304054 
	C66.492722,45.275162 66.768272,45.652786 67.043831,46.030407 
	C67.043831,46.030407 66.980438,46.017708 67.003883,46.242420 
	C67.233246,46.732021 67.439163,46.996914 67.676102,47.710571 
	C67.694511,53.118076 67.681892,58.076817 67.474335,63.323814 
	C66.542557,66.420700 65.805710,69.229332 65.068863,72.037956 
	C65.068863,72.037956 65.016624,72.011795 64.696419,71.947632 
	C64.270271,72.272423 64.164330,72.661377 64.058388,73.050331 
	C64.058388,73.050331 64.010384,73.022217 63.728279,72.841644 
	C62.705894,73.403809 61.965607,74.146545 61.225319,74.889282 
	C54.973850,77.261444 48.783459,77.587502 42.180214,73.889427 
	C39.637177,69.672714 37.613766,65.902901 35.696144,62.109711 
	C35.801937,62.086334 36.017345,62.062817 36.419731,61.872147 
	C36.885509,51.724739 36.948898,41.768005 36.968063,31.613787 
	C36.923836,31.416304 36.958691,31.013056 36.958691,31.013056 
	C37.308441,30.521231 37.658195,30.029406 38.177292,29.275276 
M63.531612,32.164417 
	C62.707958,32.910122 61.185795,33.640026 61.168514,34.403969 
	C60.992199,42.198898 61.060654,49.999367 61.060654,57.798283 
	C61.968353,50.880173 61.850166,43.965256 62.061306,37.060406 
	C62.107285,35.556824 63.331734,34.089275 63.531612,32.164417 
z"/>
<path fill="#C6ECE5" opacity="1.000000" stroke="none" 
	d="
M36.577141,30.869389 
	C36.958691,31.013056 36.923836,31.416304 36.596203,31.859318 
	C36.184826,42.222492 36.101086,52.142654 36.017345,62.062817 
	C36.017345,62.062817 35.801937,62.086334 35.369862,62.143143 
	C33.282990,61.886433 31.534773,61.812634 29.992100,61.211418 
	C26.349867,59.791969 22.958220,58.011719 20.523031,63.202827 
	C20.011164,64.293983 17.469286,64.432846 15.862816,65.010513 
	C10.101787,62.627609 9.396185,57.615196 9.779449,52.423958 
	C10.099211,48.092861 13.037211,45.267536 16.652067,43.068611 
	C17.618469,42.480747 18.586073,41.436966 18.950703,40.392235 
	C21.271982,33.741318 28.161858,27.551670 36.577141,30.869389 
z"/>
<path fill="#F7F5E9" opacity="1.000000" stroke="none" 
	d="
M15.784294,65.360161 
	C17.469286,64.432846 20.011164,64.293983 20.523031,63.202827 
	C22.958220,58.011719 26.349867,59.791969 29.992100,61.211418 
	C31.534773,61.812634 33.282990,61.886433 35.264069,62.166515 
	C37.613766,65.902901 39.637177,69.672714 41.837780,73.726768 
	C38.751488,78.495476 33.942032,76.489693 29.268703,76.947662 
	C24.676561,76.685944 20.481026,76.722969 16.410807,76.027046 
	C14.148693,75.640266 10.944193,74.538963 10.203629,72.860146 
	C8.920156,69.950592 11.392375,68.249207 14.380503,67.629387 
	C14.931285,67.515137 15.269464,66.375931 15.784294,65.360161 
z"/>
<path fill="#543B38" opacity="1.000000" stroke="none" 
	d="
M75.454102,33.891434 
	C76.474304,33.623306 77.877640,33.404392 79.654694,33.089859 
	C82.601242,35.691185 87.926155,34.318680 89.083733,39.067726 
	C89.609543,41.224934 89.966805,43.423222 90.090393,45.842667 
	C89.780258,46.082462 89.409874,46.164425 89.247055,46.118771 
	C89.084244,46.073116 89.119476,46.113914 89.119476,46.113914 
	C90.508141,41.175644 87.372231,37.195358 82.133942,36.550659 
	C79.960884,36.283211 77.931793,34.845932 75.454102,33.891434 
z"/>
<path fill="#492E2D" opacity="1.000000" stroke="none" 
	d="
M67.669281,63.035553 
	C67.681892,58.076817 67.694511,53.118076 67.761536,47.401039 
	C67.839996,46.430363 67.864052,46.217983 67.888115,46.005604 
	C70.679626,46.005604 73.471146,46.005604 76.262657,46.005604 
	C76.262527,46.280098 76.262405,46.554596 76.262276,46.829090 
	C74.021072,46.938030 71.779869,47.046970 68.974411,47.183338 
	C68.974411,52.203541 68.974411,57.140472 68.621231,62.542145 
	C68.068474,63.016445 67.868881,63.025997 67.669281,63.035553 
z"/>
<path fill="#4D6369" opacity="1.000000" stroke="none" 
	d="
M67.474342,63.323814 
	C67.868881,63.025997 68.068474,63.016445 68.567780,63.007458 
	C67.836647,65.976860 66.805794,68.945686 65.421906,71.976242 
	C65.805710,69.229332 66.542557,66.420700 67.474342,63.323814 
z"/>
<path fill="#4D6369" opacity="1.000000" stroke="none" 
	d="
M61.536133,74.917061 
	C61.965607,74.146545 62.705894,73.403809 63.741249,72.866302 
	C63.306526,73.695961 62.576736,74.320396 61.536133,74.917061 
z"/>
<path fill="#4D6369" opacity="1.000000" stroke="none" 
	d="
M67.014023,45.778702 
	C66.768272,45.652786 66.492722,45.275162 66.121552,44.679451 
	C66.345360,44.816570 66.664780,45.171780 67.014023,45.778702 
z"/>
<path fill="#4D6369" opacity="1.000000" stroke="none" 
	d="
M67.671417,45.864952 
	C67.864052,46.217983 67.839996,46.430363 67.730515,46.952271 
	C67.439163,46.996914 67.233246,46.732021 67.009644,46.210609 
	C67.146225,45.877491 67.300476,45.800900 67.671417,45.864952 
z"/>
<path fill="#543B38" opacity="1.000000" stroke="none" 
	d="
M89.070267,46.050079 
	C89.056282,46.027039 88.988518,46.039173 89.054001,46.076546 
	C89.119476,46.113914 89.084244,46.073116 89.070267,46.050079 
z"/>
<path fill="#4D6369" opacity="1.000000" stroke="none" 
	d="
M64.350006,73.052658 
	C64.164330,72.661377 64.270271,72.272423 64.713272,71.971474 
	C64.914093,72.391319 64.777863,72.723152 64.350006,73.052658 
z"/>
<path fill="#492F2D" opacity="1.000000" stroke="none" 
	d="
M59.505630,30.165636 
	C59.650524,38.698303 59.450912,47.242184 59.066856,55.777760 
	C58.931221,58.792305 58.345020,61.786579 57.576035,64.886993 
	C57.419411,55.205994 57.596722,45.426231 57.931660,35.651871 
	C57.994617,33.814716 58.686707,31.999123 59.505630,30.165636 
z"/>
<path fill="#492F2E" opacity="1.000000" stroke="none" 
	d="
M47.777946,64.702118 
	C47.202854,63.472790 46.014938,61.830849 45.981491,60.165718 
	C45.792027,50.732983 45.878986,41.294689 45.951073,31.390369 
	C46.388645,32.551483 47.012039,34.172501 47.061623,35.810883 
	C47.348747,45.297916 47.500618,54.789043 47.777946,64.702118 
z"/>
<path fill="#492F2E" opacity="1.000000" stroke="none" 
	d="
M46.039673,30.623980 
	C45.465374,30.862619 44.851254,30.758837 44.100273,30.360844 
	C44.642223,30.138277 45.321037,30.209917 46.039673,30.623980 
z"/>
<path fill="#472B29" opacity="1.000000" stroke="none" 
	d="
M36.419731,61.872147 
	C36.101086,52.142654 36.184826,42.222492 36.640427,32.056801 
	C36.948898,41.768005 36.885509,51.724739 36.419731,61.872147 
z"/>
<path fill="#487682" opacity="1.000000" stroke="none" 
	d="
M63.772522,32.384773 
	C63.331734,34.089275 62.107285,35.556824 62.061306,37.060406 
	C61.850166,43.965256 61.968353,50.880173 61.060654,57.798283 
	C61.060654,49.999367 60.992199,42.198898 61.168514,34.403969 
	C61.185795,33.640026 62.707958,32.910122 63.772522,32.384773 
z"/>
</svg>